<svg width="195" height="47" viewBox="0 0 195 47" fill="none" xmlns="http://www.w3.org/2000/svg">
<path fill-rule="evenodd" clip-rule="evenodd" d="M44.8334 0.999321V36.167L41.1647 33.1554H34.2653C29.6247 33.1554 25.8327 29.3908 25.7095 24.6133C25.6958 24.2573 25.8327 23.9562 26.1065 23.7235C26.216 23.6139 26.3666 23.5592 26.5035 23.5181C26.5993 23.4907 26.6952 23.4771 26.791 23.4771H40.4118C40.4392 23.4771 40.4665 23.4771 40.4802 23.4771C40.6719 23.4497 40.8498 23.3539 40.9594 23.1759C41.0826 22.9706 41.1099 22.7378 41.0141 22.5188C41.0004 22.4914 40.9867 22.464 40.9867 22.4367C40.8772 22.1903 40.6445 22.026 40.3844 22.026H18.8375C14.1969 22.026 10.405 18.1656 10.2818 13.3744C10.2681 13.0732 10.3776 12.7994 10.5829 12.5804C10.7883 12.3614 11.0484 12.2519 11.3495 12.2519H40.2612C40.4665 12.2519 40.6445 12.1697 40.7814 12.0328C40.9183 11.896 41.0004 11.718 41.0004 11.5127C41.0004 11.102 40.6719 10.7734 40.2612 10.7734H8.13256C3.69724 10.5407 0.124349 6.77618 0.00114549 2.13553C-0.0125437 1.83436 0.0969718 1.56058 0.30231 1.34155C0.507649 1.12252 0.767746 0.999321 1.06891 0.999321H44.8334V0.999321Z" fill="#024C81"/>
<path fill-rule="evenodd" clip-rule="evenodd" d="M194.867 12.2519C194.785 14.8528 193.006 17.0705 190.514 18.0013H158.687C158.481 18.0013 158.303 18.0835 158.167 18.2204C158.03 18.3573 157.947 18.5352 157.947 18.7406C157.947 19.1512 158.276 19.4798 158.687 19.4798H163.656C163.724 19.5072 163.806 19.5209 163.889 19.5209H185.641C185.887 19.5209 186.093 19.603 186.257 19.7673C186.421 19.9315 186.503 20.1232 186.503 20.3422C186.421 23.1759 184.299 25.5578 181.452 26.3107H159.412C159.207 26.3107 159.029 26.3929 158.892 26.5297C158.755 26.6666 158.673 26.8446 158.673 27.0499C158.673 27.4606 159.002 27.7892 159.412 27.7892H173.622C173.841 27.9534 173.95 28.1725 173.937 28.4326C173.827 31.8686 170.747 34.579 166.969 34.579H161.356L152.376 36.4271L151.514 29.4182C151.746 29.3223 151.979 29.2128 152.198 29.0896C153.033 28.6105 153.663 27.926 154.114 27.0499C154.566 26.1738 154.785 25.1608 154.785 24.0383C154.785 22.9158 154.553 21.9165 154.087 21.0814C153.622 20.2327 152.978 19.5756 152.171 19.0828C151.582 18.7269 150.911 18.5079 150.158 18.412L149.31 11.4579H194.019C194.265 11.4579 194.47 11.54 194.635 11.7043C194.799 11.8275 194.881 12.0192 194.867 12.2519Z" fill="#024C81"/>
<path d="M50.7746 0.999321H44.7924V36.167H52.6226V22.3682H68.3515V15.6331H52.6226V7.72074H69.1592V0.999321H52.6226H50.7746Z" fill="#F6FAFE"/>
<path d="M81.1098 0H73.4849V36.167H81.1098V0Z" fill="#F6FAFE"/>
<path d="M101.972 11.9507L97.044 26.653L92.2117 11.9507H83.9982L93.2384 34.4969L87.7353 46.3655H95.5519L99.8366 36.2628L110.199 11.9507H101.972Z" fill="#F6FAFE"/>
<path d="M114.484 27.488C113.184 27.488 112.116 27.9261 111.24 28.8022C110.378 29.6783 109.939 30.7871 109.939 32.115C109.939 33.3744 110.364 34.4558 111.24 35.3593C112.102 36.2491 113.184 36.7009 114.484 36.7009C115.812 36.7009 116.894 36.2491 117.742 35.3593C118.591 34.4695 119.015 33.3881 119.015 32.115C119.015 30.7871 118.591 29.6783 117.742 28.8022C116.894 27.9397 115.812 27.488 114.484 27.488Z" fill="url(#paint0_linear_9_231)"/>
<path d="M132.267 11.9507H124.642V36.1533H132.267V11.9507Z" fill="#F6FAFE"/>
<path d="M128.475 0.246407C127.284 0.246407 126.284 0.643396 125.518 1.43737C124.737 2.23135 124.34 3.23066 124.34 4.42162C124.34 5.58521 124.724 6.57083 125.518 7.3785C126.298 8.18616 127.284 8.59684 128.475 8.59684C129.666 8.59684 130.651 8.18616 131.418 7.3785C132.184 6.57083 132.568 5.57152 132.568 4.42162C132.568 3.23066 132.184 2.23135 131.418 1.43737C130.651 0.643396 129.666 0.246407 128.475 0.246407Z" fill="#FF8C97"/>
<path d="M159.412 26.297H162.342C162.465 25.5578 162.533 24.7912 162.533 23.9972C162.533 22.3682 162.26 20.8624 161.726 19.4524H158.687C158.276 19.4524 157.947 19.1239 157.947 18.7132C157.947 18.5079 158.03 18.3299 158.167 18.193C158.303 18.0561 158.481 17.974 158.687 17.974H161.041C160.959 17.8234 160.877 17.6728 160.781 17.5359C159.618 15.6331 158.043 14.1273 156.045 13.0322C154.306 12.0739 152.349 11.5263 150.199 11.4168C149.898 11.4031 149.583 11.3895 149.269 11.3895C146.75 11.3895 144.491 11.9507 142.492 13.0595C140.494 14.1684 138.919 15.6742 137.756 17.5633C136.592 19.4524 136.017 21.6016 136.017 23.9836C136.017 26.3792 136.592 28.5284 137.756 30.4586C138.919 32.3887 140.507 33.9082 142.52 35.0171C144.532 36.1259 146.777 36.6872 149.269 36.6872C150.336 36.6872 151.363 36.5913 152.349 36.386C153.663 36.1122 154.908 35.6605 156.045 35.0171C158.03 33.9082 159.618 32.3887 160.781 30.4586C161.301 29.5961 161.698 28.6927 161.986 27.7481H159.399C158.988 27.7481 158.659 27.4195 158.659 27.0089C158.659 26.8035 158.741 26.6256 158.878 26.4887C159.029 26.3792 159.207 26.297 159.412 26.297ZM154.101 27.0226C153.649 27.8987 153.019 28.5831 152.184 29.0623C151.965 29.1855 151.746 29.295 151.5 29.3908C150.829 29.6509 150.104 29.7878 149.282 29.7878C148.214 29.7878 147.27 29.5414 146.449 29.0623C145.613 28.5831 144.97 27.8987 144.505 27.0226C144.039 26.1464 143.807 25.1471 143.807 24.052C143.807 22.9295 144.039 21.9302 144.505 21.0677C144.97 20.2053 145.613 19.5345 146.449 19.0554C147.284 18.5763 148.228 18.3299 149.282 18.3299C149.583 18.3299 149.857 18.3436 150.131 18.3846C150.884 18.4805 151.541 18.6995 152.143 19.0554C152.951 19.5345 153.594 20.2053 154.06 21.0541C154.525 21.9028 154.758 22.8884 154.758 24.0109C154.772 25.1334 154.553 26.1464 154.101 27.0226Z" fill="#F6FAFE"/>
<path fill-rule="evenodd" clip-rule="evenodd" d="M40.4939 23.4634C40.4255 23.4907 40.3297 23.5044 40.2475 23.5044H26.5035C26.5994 23.4771 26.6952 23.4634 26.791 23.4634H40.4118C40.4392 23.477 40.4666 23.477 40.4939 23.4634Z" fill="white"/>
<defs>
<linearGradient id="paint0_linear_9_231" x1="109.939" y1="36.7009" x2="119.015" y2="36.7009" gradientUnits="userSpaceOnUse">
<stop stop-color="#FFA197"/>
<stop offset="1" stop-color="#FF4A95"/>
</linearGradient>
</defs>
</svg>
