<svg width="128" height="31" viewBox="0 0 128 31" fill="none" xmlns="http://www.w3.org/2000/svg">
<path fill-rule="evenodd" clip-rule="evenodd" d="M29.3621 0.654472V23.6863L26.9594 21.714H22.4409C19.4016 21.714 16.9183 19.2485 16.8376 16.1196C16.8286 15.8865 16.9183 15.6893 17.0976 15.5369C17.1693 15.4651 17.2679 15.4293 17.3576 15.4024C17.4203 15.3845 17.4831 15.3755 17.5458 15.3755H26.4663C26.4842 15.3755 26.5022 15.3755 26.5111 15.3755C26.6366 15.3576 26.7532 15.2948 26.8249 15.1783C26.9056 15.0438 26.9235 14.8914 26.8608 14.7479C26.8518 14.73 26.8428 14.7121 26.8428 14.6941C26.7711 14.5328 26.6187 14.4252 26.4484 14.4252H12.337C9.29776 14.4252 6.81438 11.897 6.73369 8.7591C6.72473 8.56187 6.79644 8.38256 6.93092 8.23911C7.0654 8.09567 7.23575 8.02395 7.43298 8.02395H26.3677C26.5022 8.02395 26.6187 7.97015 26.7084 7.8805C26.798 7.79085 26.8518 7.6743 26.8518 7.53982C26.8518 7.27086 26.6366 7.0557 26.3677 7.0557H5.32614C2.42138 6.90329 0.0814379 4.43783 0.000750202 1.39859C-0.00821509 1.20135 0.0635084 1.02205 0.197988 0.878605C0.332467 0.73516 0.502808 0.654472 0.700045 0.654472H29.3621Z" fill="#024C81"/>
<path fill-rule="evenodd" clip-rule="evenodd" d="M127.622 8.02394C127.568 9.72734 126.402 11.1797 124.771 11.7894H103.926C103.792 11.7894 103.675 11.8432 103.586 11.9328C103.496 12.0225 103.442 12.139 103.442 12.2735C103.442 12.5424 103.657 12.7576 103.926 12.7576H107.181C107.226 12.7755 107.279 12.7845 107.333 12.7845H121.579C121.74 12.7845 121.875 12.8383 121.982 12.9459C122.09 13.0535 122.144 13.179 122.144 13.3224C122.09 15.1782 120.7 16.7382 118.836 17.2313H104.402C104.267 17.2313 104.151 17.2851 104.061 17.3747C103.971 17.4644 103.917 17.5809 103.917 17.7154C103.917 17.9844 104.133 18.1995 104.402 18.1995H113.708C113.851 18.3071 113.923 18.4506 113.914 18.6209C113.842 20.8712 111.825 22.6463 109.35 22.6463H105.675L99.7934 23.8567L99.2286 19.2664C99.381 19.2037 99.5334 19.1319 99.6768 19.0513C100.224 18.7375 100.636 18.2892 100.932 17.7154C101.228 17.1416 101.371 16.4782 101.371 15.7431C101.371 15.0079 101.219 14.3534 100.914 13.8066C100.609 13.2507 100.188 12.8204 99.6589 12.4976C99.2734 12.2645 98.8341 12.1211 98.341 12.0583L97.7852 7.50395H127.066C127.227 7.50395 127.362 7.55774 127.469 7.66533C127.577 7.74601 127.631 7.87153 127.622 8.02394Z" fill="#024C81"/>
<path d="M33.253 0.654472H29.3352V23.6863H34.4634V14.6493H44.7645V10.2384H34.4634V5.05643H45.2934V0.654472H34.4634H33.253Z" fill="#F6FAFE"/>
<path d="M53.12 0H48.1263V23.6863H53.12V0Z" fill="#F6FAFE"/>
<path d="M66.7831 7.82671L63.5556 17.4554L60.3909 7.82671H55.0117L61.0633 22.5926L57.4592 30.3655H62.5784L65.3846 23.7491L72.1713 7.82671H66.7831Z" fill="#F6FAFE"/>
<path d="M74.9776 18.0023C74.1259 18.0023 73.4266 18.2892 72.8528 18.863C72.288 19.4368 72.0011 20.163 72.0011 21.0326C72.0011 21.8574 72.279 22.5657 72.8528 23.1574C73.4176 23.7401 74.1259 24.036 74.9776 24.036C75.8472 24.036 76.5555 23.7401 77.1113 23.1574C77.6672 22.5746 77.9451 21.8664 77.9451 21.0326C77.9451 20.163 77.6672 19.4368 77.1113 18.863C76.5555 18.2982 75.8472 18.0023 74.9776 18.0023Z" fill="url(#paint0_linear_9_231)"/>
<path d="M86.6234 7.82671H81.6298V23.6774H86.6234V7.82671Z" fill="#F6FAFE"/>
<path d="M84.14 0.161377C83.36 0.161377 82.7056 0.421372 82.2035 0.941359C81.6925 1.46135 81.4325 2.11581 81.4325 2.89579C81.4325 3.65784 81.6835 4.30334 82.2035 4.83229C82.7145 5.36125 83.36 5.63021 84.14 5.63021C84.92 5.63021 85.5655 5.36125 86.0676 4.83229C86.5696 4.30334 86.8206 3.64888 86.8206 2.89579C86.8206 2.11581 86.5696 1.46135 86.0676 0.941359C85.5655 0.421372 84.92 0.161377 84.14 0.161377Z" fill="#FF8C97"/>
<path d="M104.402 17.2223H106.32C106.401 16.7382 106.446 16.2362 106.446 15.7162C106.446 14.6493 106.266 13.6631 105.917 12.7397H103.926C103.657 12.7397 103.442 12.5245 103.442 12.2556C103.442 12.1211 103.496 12.0045 103.586 11.9149C103.675 11.8252 103.792 11.7714 103.926 11.7714H105.468C105.415 11.6728 105.361 11.5742 105.298 11.4845C104.536 10.2384 103.505 9.25219 102.196 8.53496C101.057 7.90739 99.7754 7.54878 98.3679 7.47706C98.1706 7.46809 97.9644 7.45913 97.7582 7.45913C96.1086 7.45913 94.6293 7.8267 93.3204 8.55289C92.0115 9.27908 90.9805 10.2653 90.2184 11.5025C89.4564 12.7397 89.0798 14.1472 89.0798 15.7072C89.0798 17.2761 89.4564 18.6837 90.2184 19.9478C90.9805 21.2119 92.0205 22.207 93.3384 22.9332C94.6562 23.6594 96.1266 24.027 97.7582 24.027C98.4575 24.027 99.1299 23.9642 99.7754 23.8298C100.636 23.6505 101.452 23.3546 102.196 22.9332C103.496 22.207 104.536 21.2119 105.298 19.9478C105.639 19.383 105.899 18.7913 106.087 18.1727H104.393C104.124 18.1727 103.908 17.9575 103.908 17.6885C103.908 17.5541 103.962 17.4375 104.052 17.3478C104.15 17.2761 104.267 17.2223 104.402 17.2223ZM100.923 17.6975C100.627 18.2713 100.215 18.7195 99.6678 19.0333C99.5244 19.114 99.381 19.1857 99.2196 19.2485C98.7803 19.4188 98.3051 19.5085 97.7672 19.5085C97.0679 19.5085 96.4493 19.3471 95.9114 19.0333C95.3645 18.7195 94.9431 18.2713 94.6383 17.6975C94.3335 17.1237 94.1811 16.4693 94.1811 15.752C94.1811 15.0169 94.3335 14.3624 94.6383 13.7976C94.9431 13.2328 95.3645 12.7935 95.9114 12.4797C96.4583 12.1659 97.0769 12.0045 97.7672 12.0045C97.9644 12.0045 98.1437 12.0135 98.3231 12.0404C98.8161 12.1032 99.2465 12.2466 99.6409 12.4797C100.17 12.7935 100.591 13.2328 100.896 13.7886C101.201 14.3445 101.353 14.99 101.353 15.7251C101.362 16.4603 101.219 17.1237 100.923 17.6975Z" fill="#F6FAFE"/>
<path fill-rule="evenodd" clip-rule="evenodd" d="M26.5201 15.3665C26.4752 15.3844 26.4125 15.3934 26.3587 15.3934H17.3575C17.4203 15.3755 17.4831 15.3665 17.5458 15.3665H26.4663C26.4842 15.3755 26.5021 15.3755 26.5201 15.3665Z" fill="white"/>
<defs>
<linearGradient id="paint0_linear_9_231" x1="72.0011" y1="24.036" x2="77.9451" y2="24.036" gradientUnits="userSpaceOnUse">
<stop stop-color="#FFA197"/>
<stop offset="1" stop-color="#FF4A95"/>
</linearGradient>
</defs>
</svg>
